<svg width="25" height="25" viewBox="0 0 25 25" fill="none" xmlns="http://www.w3.org/2000/svg">
<g clip-path="url(#clip0_35_407)">
<path d="M19.98 0.72998H5.98001C3.21901 0.72998 0.980011 2.96898 0.980011 5.72998V19.73C0.980011 22.491 3.21901 24.73 5.98001 24.73H19.98C22.742 24.73 24.98 22.491 24.98 19.73V5.72998C24.98 2.96898 22.742 0.72998 19.98 0.72998ZM8.98001 19.73H5.98001V8.72998H8.98001V19.73ZM7.48001 7.46198C6.51401 7.46198 5.73001 6.67198 5.73001 5.69798C5.73001 4.72398 6.51401 3.93398 7.48001 3.93398C8.44601 3.93398 9.23001 4.72398 9.23001 5.69798C9.23001 6.67198 8.44701 7.46198 7.48001 7.46198ZM20.98 19.73H17.98V14.126C17.98 10.758 13.98 11.013 13.98 14.126V19.73H10.98V8.72998H13.98V10.495C15.376 7.90898 20.98 7.71798 20.98 12.971V19.73Z" fill="#1E1E1E"/>
</g>
<defs>
<clipPath id="clip0_35_407">
<rect width="24" height="24" fill="white" transform="translate(0.980011 0.72998)"/>
</clipPath>
</defs>
</svg>
