<svg width="25" height="25" viewBox="0 0 25 25" fill="none" xmlns="http://www.w3.org/2000/svg">
<g clip-path="url(#clip0_35_403)">
<path d="M12.98 2.89298C16.184 2.89298 16.564 2.90498 17.83 2.96298C21.082 3.11098 22.601 4.65398 22.749 7.88198C22.807 9.14698 22.818 9.52698 22.818 12.731C22.818 15.936 22.806 16.315 22.749 17.58C22.6 20.805 21.085 22.351 17.83 22.499C16.564 22.557 16.186 22.569 12.98 22.569C9.77601 22.569 9.39601 22.557 8.13101 22.499C4.87101 22.35 3.36001 20.8 3.21201 17.579C3.15401 16.314 3.14201 15.935 3.14201 12.73C3.14201 9.52598 3.15501 9.14698 3.21201 7.88098C3.36101 4.65398 4.87601 3.10998 8.13101 2.96198C9.39701 2.90498 9.77601 2.89298 12.98 2.89298ZM12.98 0.72998C9.72101 0.72998 9.31301 0.74398 8.03301 0.80198C3.67501 1.00198 1.25301 3.41998 1.05301 7.78198C0.994011 9.06298 0.980011 9.47098 0.980011 12.73C0.980011 15.989 0.994011 16.398 1.05201 17.678C1.25201 22.036 3.67001 24.458 8.03201 24.658C9.31301 24.716 9.72101 24.73 12.98 24.73C16.239 24.73 16.648 24.716 17.928 24.658C22.282 24.458 24.71 22.04 24.907 17.678C24.966 16.398 24.98 15.989 24.98 12.73C24.98 9.47098 24.966 9.06298 24.908 7.78298C24.712 3.42898 22.291 1.00298 17.929 0.80298C16.648 0.74398 16.239 0.72998 12.98 0.72998ZM12.98 6.56798C9.57701 6.56798 6.81801 9.32698 6.81801 12.73C6.81801 16.133 9.57701 18.893 12.98 18.893C16.383 18.893 19.142 16.134 19.142 12.73C19.142 9.32698 16.383 6.56798 12.98 6.56798ZM12.98 16.73C10.771 16.73 8.98001 14.94 8.98001 12.73C8.98001 10.521 10.771 8.72998 12.98 8.72998C15.189 8.72998 16.98 10.521 16.98 12.73C16.98 14.94 15.189 16.73 12.98 16.73ZM19.386 4.88498C18.59 4.88498 17.945 5.52998 17.945 6.32498C17.945 7.11998 18.59 7.76498 19.386 7.76498C20.181 7.76498 20.825 7.11998 20.825 6.32498C20.825 5.52998 20.181 4.88498 19.386 4.88498Z" fill="#1E1E1E"/>
</g>
<defs>
<clipPath id="clip0_35_403">
<rect width="24" height="24" fill="white" transform="translate(0.980011 0.72998)"/>
</clipPath>
</defs>
</svg>
